<svg width="24" height="18" viewBox="0 0 24 18" fill="none" xmlns="http://www.w3.org/2000/svg">
<path d="M11.3557 13.0833H12.6682V7.3375L15.1474 9.875L16.0807 8.9125L11.9682 4.82917L7.8849 8.9125L8.8474 9.875L11.3557 7.3375V13.0833ZM2.60573 17.75C2.13906 17.75 1.74045 17.5847 1.4099 17.2542C1.07934 16.9236 0.914062 16.525 0.914062 16.0583V1.94167C0.914062 1.475 1.07934 1.07639 1.4099 0.745834C1.74045 0.415278 2.13906 0.25 2.60573 0.25H21.3891C21.8557 0.25 22.2543 0.415278 22.5849 0.745834C22.9155 1.07639 23.0807 1.475 23.0807 1.94167V16.0583C23.0807 16.525 22.9155 16.9236 22.5849 17.2542C22.2543 17.5847 21.8557 17.75 21.3891 17.75H2.60573ZM2.60573 16.4375H21.3891C21.4863 16.4375 21.5738 16.3986 21.6516 16.3208C21.7293 16.2431 21.7682 16.1556 21.7682 16.0583V1.94167C21.7682 1.84444 21.7293 1.75694 21.6516 1.67917C21.5738 1.60139 21.4863 1.5625 21.3891 1.5625H2.60573C2.50851 1.5625 2.42101 1.60139 2.34323 1.67917C2.26545 1.75694 2.22656 1.84444 2.22656 1.94167V16.0583C2.22656 16.1556 2.26545 16.2431 2.34323 16.3208C2.42101 16.3986 2.50851 16.4375 2.60573 16.4375ZM2.22656 16.4375V1.5625V16.4375Z" fill="black"/>
</svg>
