<svg width="32" height="32" viewBox="0 0 32 32" fill="none" xmlns="http://www.w3.org/2000/svg">
<rect width="32" height="32" rx="2" fill="#3C4A94"/>
<path d="M7.93333 25.9999C7.4 25.9999 6.94444 25.811 6.56667 25.4333C6.18889 25.0555 6 24.5999 6 24.0666V19.9333H7.5V24.0666C7.5 24.1777 7.54444 24.2777 7.63333 24.3666C7.72222 24.4555 7.82222 24.4999 7.93333 24.4999H24.0667C24.1778 24.4999 24.2778 24.4555 24.3667 24.3666C24.4556 24.2777 24.5 24.1777 24.5 24.0666V19.9333H26V24.0666C26 24.5999 25.8111 25.0555 25.4333 25.4333C25.0556 25.811 24.6 25.9999 24.0667 25.9999H7.93333ZM16 20.9999L10.4667 15.4666L11.5667 14.3999L15.2333 18.0666V5.7666H16.7667V18.0666L20.4333 14.3999L21.5333 15.4666L16 20.9999Z" fill="white"/>
</svg>
