<svg width="24" height="24" viewBox="0 0 24 24" fill="none" xmlns="http://www.w3.org/2000/svg">
<path d="M11.416 17.542H12.7285V10.8337H11.416V17.542ZM11.9993 8.96699C12.2132 8.96699 12.398 8.89407 12.5535 8.74824C12.7091 8.60241 12.7868 8.41283 12.7868 8.17949C12.7868 7.94616 12.7139 7.75658 12.5681 7.61074C12.4223 7.46491 12.2327 7.39199 11.9993 7.39199C11.766 7.39199 11.5764 7.46491 11.4306 7.61074C11.2848 7.75658 11.2118 7.94616 11.2118 8.17949C11.2118 8.41283 11.2848 8.60241 11.4306 8.74824C11.5764 8.89407 11.766 8.96699 11.9993 8.96699ZM11.9993 23.0837C10.4632 23.0837 9.02435 22.792 7.68268 22.2087C6.34102 21.6253 5.16949 20.833 4.1681 19.8316C3.16671 18.8302 2.37435 17.6587 1.79102 16.317C1.20768 14.9753 0.916016 13.5364 0.916016 12.0003C0.916016 10.4642 1.20768 9.02046 1.79102 7.66908C2.37435 6.31769 3.16671 5.14616 4.1681 4.15449C5.16949 3.16283 6.34102 2.37533 7.68268 1.79199C9.02435 1.20866 10.4632 0.916992 11.9993 0.916992C13.5355 0.916992 14.9792 1.20866 16.3306 1.79199C17.682 2.37533 18.8535 3.16283 19.8452 4.15449C20.8368 5.14616 21.6243 6.31769 22.2077 7.66908C22.791 9.02046 23.0827 10.4642 23.0827 12.0003C23.0827 13.5364 22.791 14.9753 22.2077 16.317C21.6243 17.6587 20.8368 18.8302 19.8452 19.8316C18.8535 20.833 17.682 21.6253 16.3306 22.2087C14.9792 22.792 13.5355 23.0837 11.9993 23.0837ZM12.0285 21.7712C14.7313 21.7712 17.0306 20.8184 18.9264 18.9128C20.8223 17.0073 21.7702 14.6934 21.7702 11.9712C21.7702 9.26838 20.8223 6.96908 18.9264 5.07324C17.0306 3.17741 14.7216 2.22949 11.9993 2.22949C9.29657 2.22949 6.9924 3.17741 5.08685 5.07324C3.18129 6.96908 2.22852 9.2781 2.22852 12.0003C2.22852 14.7031 3.18129 17.0073 5.08685 18.9128C6.9924 20.8184 9.30629 21.7712 12.0285 21.7712Z" fill="#4859B2"/>
</svg>
