<svg width="26" height="20" viewBox="0 0 26 20" fill="none" xmlns="http://www.w3.org/2000/svg">
<path d="M12.9974 12.4207L14.2807 9.5332L17.1682 8.24987L14.2807 6.96654L12.9974 4.07904L11.7141 6.96654L8.82656 8.24987L11.7141 9.5332L12.9974 12.4207ZM3.60573 16.679C3.13906 16.679 2.74045 16.5138 2.4099 16.1832C2.07934 15.8526 1.91406 15.4638 1.91406 15.0165V2.03737C1.91406 1.5707 2.07934 1.17209 2.4099 0.841537C2.74045 0.510981 3.13906 0.345703 3.60573 0.345703H22.3891C22.8557 0.345703 23.2543 0.510981 23.5849 0.841537C23.9155 1.17209 24.0807 1.5707 24.0807 2.03737V15.0165C24.0807 15.4638 23.9155 15.8526 23.5849 16.1832C23.2543 16.5138 22.8557 16.679 22.3891 16.679H3.60573ZM3.60573 15.3665H22.3891C22.4863 15.3665 22.5738 15.3276 22.6516 15.2499C22.7293 15.1721 22.7682 15.0943 22.7682 15.0165V2.03737C22.7682 1.94015 22.7293 1.85751 22.6516 1.78945C22.5738 1.7214 22.4863 1.68737 22.3891 1.68737H3.60573C3.50851 1.68737 3.42101 1.7214 3.34323 1.78945C3.26545 1.85751 3.22656 1.94015 3.22656 2.03737V15.0165C3.22656 15.0943 3.26545 15.1721 3.34323 15.2499C3.42101 15.3276 3.50851 15.3665 3.60573 15.3665ZM3.22656 15.3665V1.68737V15.3665ZM1.2724 19.5957C1.07795 19.5957 0.917535 19.5325 0.791146 19.4061C0.664757 19.2797 0.601562 19.1193 0.601562 18.9249C0.601562 18.7499 0.664757 18.5992 0.791146 18.4728C0.917535 18.3464 1.07795 18.2832 1.2724 18.2832H24.7224C24.9168 18.2832 25.0773 18.3464 25.2036 18.4728C25.33 18.5992 25.3932 18.7596 25.3932 18.954C25.3932 19.129 25.33 19.2797 25.2036 19.4061C25.0773 19.5325 24.9168 19.5957 24.7224 19.5957H1.2724Z" fill="black"/>
</svg>
