<svg width="20" height="21" viewBox="0 0 20 21" fill="none" xmlns="http://www.w3.org/2000/svg">
<path d="M1.89089 20.4997C1.42422 20.4997 1.02561 20.3344 0.695052 20.0038C0.364497 19.6733 0.199219 19.2747 0.199219 18.808V1.77467C0.199219 1.30801 0.364497 0.909397 0.695052 0.578841C1.02561 0.248286 1.42422 0.0830078 1.89089 0.0830078H9.94089V1.39551H1.89089C1.79366 1.39551 1.70616 1.4344 1.62839 1.51217C1.55061 1.58995 1.51172 1.67745 1.51172 1.77467V18.808C1.51172 18.9052 1.55061 18.9927 1.62839 19.0705C1.70616 19.1483 1.79366 19.1872 1.89089 19.1872H9.94089V20.4997H1.89089ZM15.3659 14.7247L14.4034 13.7913L17.2617 10.9622H6.96588V9.62051H17.2326L14.3742 6.79134L15.3367 5.82884L19.7992 10.3205L15.3659 14.7247Z" fill="black"/>
</svg>
