<svg width="28" height="28" viewBox="0 0 28 28" fill="none" xmlns="http://www.w3.org/2000/svg">
<path d="M5.39844 21.6705C6.54566 20.6011 7.84358 19.7406 9.29219 19.0893C10.7408 18.4379 12.3109 18.1122 14.0026 18.1122C15.6943 18.1122 17.2644 18.4379 18.713 19.0893C20.1616 19.7406 21.4595 20.6011 22.6068 21.6705V5.77467C22.6068 5.67745 22.5679 5.58995 22.4901 5.51217C22.4123 5.4344 22.3248 5.39551 22.2276 5.39551H5.7776C5.68038 5.39551 5.59288 5.4344 5.5151 5.51217C5.43733 5.58995 5.39844 5.67745 5.39844 5.77467V21.6705ZM14.0318 15.633C15.0818 15.633 15.9714 15.2684 16.7005 14.5393C17.4297 13.8101 17.7943 12.9205 17.7943 11.8705C17.7943 10.8205 17.4297 9.93092 16.7005 9.20176C15.9714 8.47259 15.0818 8.10801 14.0318 8.10801C12.9818 8.10801 12.097 8.47259 11.3776 9.20176C10.6582 9.93092 10.2984 10.8205 10.2984 11.8705C10.2984 12.9205 10.6582 13.8101 11.3776 14.5393C12.097 15.2684 12.9818 15.633 14.0318 15.633ZM5.7776 23.9163C5.31094 23.9163 4.91233 23.7511 4.58177 23.4205C4.25122 23.09 4.08594 22.6913 4.08594 22.2247V5.77467C4.08594 5.30801 4.25122 4.9094 4.58177 4.57884C4.91233 4.24829 5.31094 4.08301 5.7776 4.08301H22.2276C22.6943 4.08301 23.0929 4.24829 23.4234 4.57884C23.754 4.9094 23.9193 5.30801 23.9193 5.77467V22.2247C23.9193 22.6913 23.754 23.09 23.4234 23.4205C23.0929 23.7511 22.6943 23.9163 22.2276 23.9163H5.7776ZM6.5651 22.6038H21.4401V22.3705C20.3512 21.3983 19.1797 20.6643 17.9255 20.1684C16.6714 19.6726 15.3637 19.4247 14.0026 19.4247C12.6609 19.4247 11.3582 19.6677 10.0943 20.1538C8.83038 20.64 7.65399 21.3691 6.5651 22.3413V22.6038ZM14.0609 14.2913C13.3804 14.2913 12.8019 14.058 12.3255 13.5913C11.8491 13.1247 11.6109 12.5511 11.6109 11.8705C11.6109 11.19 11.8491 10.6163 12.3255 10.1497C12.8019 9.68301 13.3707 9.44968 14.0318 9.44968C14.7123 9.44968 15.2908 9.68787 15.7672 10.1643C16.2436 10.6406 16.4818 11.2094 16.4818 11.8705C16.4818 12.5511 16.2436 13.1247 15.7672 13.5913C15.2908 14.058 14.722 14.2913 14.0609 14.2913Z" fill="black"/>
</svg>
